<svg width="115" height="50" viewBox="0 0 115 50" fill="none" xmlns="http://www.w3.org/2000/svg">
<path d="M86.4937 34.5088C86.494 36.2004 86.494 37.8239 86.494 39.4991C85.0121 39.4991 83.5532 39.4991 82.052 39.4991C82.052 35.7504 82.052 32.0298 82.052 28.2141C82.3004 28.2141 82.5477 28.2141 82.795 28.2141C85.9585 28.2137 89.1221 28.2181 92.2855 28.2099C93.1429 28.2076 93.5485 27.8462 93.5909 27.107C93.6389 26.2671 93.2085 25.8447 92.2418 25.8428C89.1018 25.8369 85.9617 25.8454 82.8216 25.8482C82.5712 25.8485 82.3207 25.8483 82.0389 25.8483C82.0389 24.34 82.0389 22.905 82.0389 21.4415C82.1156 21.4186 82.2008 21.3705 82.2858 21.3708C85.66 21.3818 89.0341 21.394 92.4081 21.4161C92.8287 21.4189 93.2532 21.4496 93.6686 21.513C96.982 22.018 98.6945 24.4553 98.1137 27.7851C97.7695 29.7583 96.6374 31.0997 94.783 31.893C94.5713 31.9835 94.3569 32.068 94.0568 32.191C95.6233 34.6377 97.1656 37.0465 98.7673 39.5483C97.5098 39.5483 96.315 39.4277 95.1571 39.5779C93.6094 39.7788 92.7433 39.2129 92.0618 37.8744C91.2096 36.2005 90.1189 34.6434 89.1593 33.0201C88.9222 32.6191 88.6707 32.4317 88.1705 32.4571C86.6141 32.5362 86.45 32.0886 86.4913 34.0973C86.4937 34.2118 86.4928 34.3263 86.4937 34.5088Z" fill="black"/>
<path d="M68.569 21.3881C69.1931 21.297 69.1545 21.6645 69.1543 22.0218C69.1519 25.8887 69.1532 29.7557 69.1545 33.6227C69.1546 33.8743 69.1606 34.1259 69.1685 34.3774C69.1861 34.9386 69.4812 35.201 70.059 35.1994C71.652 35.195 73.2452 35.1945 74.8381 35.2118C75.3453 35.2173 75.5663 34.9732 75.6045 34.5192C75.6217 34.3146 75.6149 34.1078 75.6144 33.902C75.6035 29.9664 75.5919 26.0309 75.5806 22.0953C75.58 21.8726 75.5806 21.6499 75.5806 21.3927C77.1423 21.3927 78.6309 21.3927 80.156 21.3927C80.1694 21.5861 80.1926 21.7643 80.1925 21.9424C80.1904 26.1526 80.1909 30.3628 80.1756 34.5729C80.1735 35.1657 80.1205 35.7618 80.0422 36.3502C79.7679 38.4138 78.8108 39.4735 76.6889 39.5421C73.7238 39.6381 70.7454 39.5806 67.7824 39.4192C65.8884 39.3161 65.012 38.3587 64.6867 36.5181C64.5755 35.8894 64.5032 35.2456 64.5009 34.6084C64.4851 30.2391 64.4926 25.8698 64.4926 21.3882C65.8082 21.3882 67.1564 21.3882 68.569 21.3881Z" fill="black"/>
<path d="M110.417 25.5769C110.417 24.1596 110.417 22.8109 110.417 21.413C111.928 21.413 113.414 21.413 114.952 21.413C114.968 21.6098 114.997 21.8067 114.998 22.0036C114.998 26.213 115.008 30.4226 114.983 34.6319C114.978 35.4279 114.894 36.2341 114.742 37.0163C114.475 38.3891 113.642 39.3572 112.175 39.44C109.585 39.5861 106.986 39.6101 104.391 39.6416C103.647 39.6506 102.894 39.5525 102.158 39.4282C100.627 39.1697 99.8272 38.4193 99.5798 36.9299C99.4231 35.9864 99.3563 35.02 99.3486 34.063C99.3152 29.8996 99.3182 25.7359 99.3095 21.5723C99.3094 21.5289 99.3295 21.4855 99.3516 21.3954C100.847 21.3954 102.353 21.3954 103.924 21.3954C103.924 21.6521 103.924 21.8746 103.924 22.0971C103.923 26.032 103.922 29.967 103.924 33.9019C103.924 35.1544 103.986 35.2114 105.266 35.211C106.671 35.2105 108.077 35.2136 109.482 35.207C110.311 35.2032 110.424 35.1026 110.425 34.2933C110.429 31.4107 110.42 28.5282 110.417 25.5769Z" fill="black"/>
<path d="M43.2378 23.3036C45.3724 20.0429 48.3576 18.2148 52.2668 17.903C54.8165 17.6996 57.2816 18.0484 59.5233 19.3257C60.3398 19.7909 61.0633 20.4121 61.9105 21.0204C60.707 22.277 59.6104 23.4218 58.4621 24.6207C56.7181 23.0149 54.686 22.3254 52.3413 22.5458C51.0402 22.6681 49.8956 23.1458 48.9112 23.9765C46.8034 25.755 46.1077 29.0881 47.3126 31.735C48.0726 33.4047 49.3187 34.5927 51.1325 35.1406C52.8872 35.6706 54.6478 35.4776 56.462 35.0516C56.462 36.6861 56.462 38.2529 56.462 39.8264C52.9656 41.1699 47.2481 39.5979 44.4578 36.5156C41.3266 33.0566 40.8126 27.6342 43.2378 23.3036Z" fill="black"/>
<path d="M74.5364 13.5476C74.6883 13.535 74.8402 13.5224 75.0961 13.551C75.4327 13.6042 75.6657 13.6306 75.898 13.626C77.9303 13.5859 79.9625 13.5085 81.9948 13.5061C83.6991 13.504 85.4036 13.586 87.1078 13.6364C87.2008 13.6392 87.2922 13.6941 87.5747 13.788C87.2673 13.8527 87.1647 13.8876 87.0603 13.8942C85.5728 13.9894 84.0752 14.005 82.5996 14.1898C80.0196 14.513 77.4282 14.8244 74.8871 15.3503C71.2728 16.0984 67.8042 17.3289 64.4689 18.8936C63.9692 19.128 63.4897 19.3043 62.9546 19.0279C62.9546 19.0279 62.9796 19.0154 62.9671 18.977C62.8459 18.8237 62.7507 18.692 62.6264 18.5964C61.1788 17.4834 59.5316 16.7417 57.783 16.23C57.1181 16.0355 56.3968 16.0246 55.7012 15.9301C55.6347 15.9303 55.5681 15.9305 55.4355 15.8647C54.2183 15.4316 53.0512 15.7209 51.8913 15.7249C51.8478 15.725 51.8045 15.8203 51.7611 15.8713C51.6957 15.8908 51.6302 15.9104 51.4679 15.8949C50.64 15.8128 49.9089 15.7658 49.1778 15.7188C49.1778 15.7188 49.1963 15.714 49.1887 15.6738C48.6516 14.8009 48.0671 14.0249 47.0662 13.6785C47.0662 13.6785 47.0875 13.6356 47.0771 13.6092C46.505 13.2019 45.9433 12.8211 45.3816 12.4403C45.3816 12.4403 45.4082 12.4085 45.3923 12.3774C44.2866 11.796 43.2503 11.0703 42.0952 10.734C40.0932 10.1511 38.0254 9.76979 35.9689 9.38719C35.21 9.24598 34.4051 9.34003 33.6212 9.32679C33.5561 9.33029 33.4909 9.33379 33.3584 9.27453C33.1627 9.17316 33.035 9.10266 32.906 9.10059C29.5194 9.04616 26.1537 9.21512 22.8466 10.0097C22.6759 10.0507 22.4859 10.015 22.3049 10.015C22.4055 9.80029 22.5139 9.70762 22.6388 9.6747C24.9968 9.05316 27.358 8.44319 29.7159 7.82154C32.3681 7.12234 35.0881 6.97245 37.8111 6.91098C39.3254 6.87679 40.8436 6.97267 42.359 7.03518C45.2219 7.15328 47.9848 7.76464 50.6793 8.69432C51.2856 8.90351 51.8891 9.12073 52.4938 9.33425C52.4938 9.33425 52.478 9.34614 52.4909 9.38487C53.2057 9.84867 53.9076 10.2738 54.6096 10.6988C54.6096 10.6988 54.5902 10.7347 54.6051 10.7547C54.6684 10.7893 54.7168 10.804 54.7652 10.8187C54.7652 10.8187 54.7449 10.8596 54.7533 10.8891C54.9459 11.0293 55.1299 11.14 55.3139 11.2507C55.3139 11.2507 55.2948 11.27 55.3089 11.2966C55.3711 11.3397 55.4192 11.3562 55.4673 11.3727C55.4673 11.3727 55.4102 11.3888 55.4367 11.4288C56.4127 12.5723 57.742 13.0007 59.0933 13.3356C59.9202 13.5405 60.7841 13.6424 61.6377 13.6969C62.9309 13.7795 64.2297 13.7806 65.5261 13.8163C66.2391 13.8081 66.9522 13.7999 67.779 13.8317C70.0027 13.8349 72.1128 13.8011 74.2226 13.7525C74.3288 13.75 74.4318 13.6188 74.5364 13.5476Z" fill="black"/>
<path d="M38.8138 25.5847C37.8534 25.5852 36.9615 25.6147 36.0728 25.5752C35.5396 25.5515 35.4004 25.7203 35.4037 26.237C35.4293 30.3343 35.4241 34.4319 35.427 38.5294C35.4277 39.5728 35.4254 39.5728 34.3494 39.5714C33.2948 39.57 32.2387 39.5366 31.186 39.5794C30.5697 39.6044 30.3778 39.4119 30.3813 38.8045C30.4049 34.6385 30.394 30.4722 30.3943 26.306C30.3943 26.1023 30.3943 25.8985 30.3943 25.5783C29.3787 25.5783 28.4051 25.5775 27.4314 25.5784C25.6087 25.5802 25.6075 25.5806 25.601 23.7908C25.5981 22.9696 25.6005 22.1484 25.6005 21.256C25.9057 21.2399 26.1546 21.2154 26.4034 21.2153C30.7627 21.2139 35.1221 21.2284 39.4812 21.2028C40.1613 21.1988 40.3887 21.399 40.3513 22.0602C40.2998 22.9731 40.2885 23.8941 40.3522 24.8054C40.399 25.4742 40.134 25.6635 39.5159 25.5891C39.3081 25.5641 39.0945 25.5848 38.8138 25.5847Z" fill="black"/>
<path d="M53.7518 49.9974C53.5445 50 53.3945 50 53.0686 50C53.3218 49.8425 53.4227 49.7608 53.5381 49.7108C56.4136 48.4647 58.0956 46.2535 58.2754 43.255C58.4854 39.7524 58.3245 36.2285 58.3245 32.653C56.2673 32.653 54.1935 32.653 52.0676 32.653C52.0676 31.2367 52.0676 29.8798 52.0676 28.4817C55.5531 28.4817 59.0541 28.4817 62.638 28.4817C62.638 29.1362 62.6382 29.7904 62.6379 30.4445C62.6364 33.6007 62.5787 36.758 62.6457 39.9128C62.7568 45.1473 59.3975 49.3393 53.7518 49.9974Z" fill="black"/>
<path d="M15.1926 21.1944C17.746 21.1955 20.2292 21.2086 22.712 21.1883C23.2763 21.1837 23.5275 21.3317 23.4744 21.9245C23.4256 22.4693 23.4477 23.0228 23.4761 23.5706C23.4997 24.023 23.3052 24.1792 22.8584 24.1732C21.383 24.1535 19.9069 24.1741 18.4319 24.1419C17.3002 24.1172 16.6372 24.2839 16.574 25.5287C16.5664 25.6779 16.2587 25.9333 16.0875 25.9355C13.6751 25.9657 11.2623 25.9575 8.84957 25.9671C8.4479 25.9687 8.34751 25.7712 8.31494 25.4151C8.23326 24.5221 7.89231 24.1969 6.97128 24.1808C5.42572 24.1538 3.87883 24.1434 2.33368 24.1774C1.7037 24.1912 1.49983 23.9748 1.55433 23.3806C1.60013 22.8814 1.60035 22.3712 1.55149 21.8724C1.4969 21.3151 1.71312 21.1784 2.2621 21.1811C6.54876 21.2018 10.8356 21.1936 15.1926 21.1944Z" fill="black"/>
<path d="M53.2458 7.63364C51.181 4.66784 52.5779 0.812046 55.9241 0.11459C58.2451 -0.369167 60.3853 0.707986 61.2469 2.79345C62.1281 4.92627 61.3531 7.58827 59.5186 8.72951C57.5478 9.9556 55.0948 9.6115 53.4617 7.87934C53.3982 7.81203 53.3391 7.74087 53.2458 7.63364Z" fill="black"/>
<path d="M51.8915 45.6067C51.8915 45.6067 51.8486 45.6423 51.7647 45.6387C51.4622 45.7062 51.2423 45.7734 51.0255 45.8491C49.2329 46.4747 47.4614 47.1684 45.6416 47.7057C44.381 48.0778 43.0605 48.2748 41.755 48.4782C40.0156 48.7493 38.2653 48.9537 36.5175 49.1705C36.4505 49.1788 36.3616 49.0184 36.2829 48.9367C36.8862 48.7203 37.4895 48.504 38.1914 48.2689C39.9216 47.9033 41.3607 47.1444 42.7425 46.2635C42.7562 46.2547 42.753 46.2205 42.7577 46.1981C42.7577 46.1981 42.7889 46.1611 42.8672 46.1627C43.5725 45.7405 44.1995 45.3167 44.8265 44.8929C44.8265 44.8929 44.8463 44.927 44.8844 44.9225C45.2798 44.6091 45.6371 44.3002 45.9945 43.9914C45.9945 43.9914 45.9911 43.9821 46.0385 43.9801C46.1381 43.9195 46.1905 43.8609 46.2428 43.8022C46.2428 43.8022 46.248 43.8192 46.2879 43.8119C46.5437 43.5896 46.7596 43.3746 46.9754 43.1596C46.9754 43.1596 46.9738 43.1576 47.0189 43.1536C47.13 43.0652 47.1961 42.9808 47.2621 42.8964C47.2621 42.8964 47.259 42.8858 47.3073 42.8818C47.3996 42.8145 47.4436 42.7512 47.4876 42.6879C47.4876 42.6879 47.4962 42.7039 47.5354 42.7012C47.6572 42.5797 47.7397 42.4609 47.8222 42.3422C47.8222 42.3422 47.8179 42.334 47.8656 42.3302C47.952 42.2618 47.9907 42.1972 48.0294 42.1326C48.0427 42.1552 48.0559 42.1778 48.0954 42.1681C48.1598 42.0632 48.198 41.9905 48.2361 41.9178C48.2361 41.9178 48.2394 41.9215 48.2879 41.9131C48.6551 41.8648 48.9873 41.7483 49.2902 41.7991C50.3377 41.9746 51.3563 42.3835 52.4497 42.1072C52.6036 42.107 52.7575 42.1069 52.9896 42.1691C53.8903 42.2151 54.7135 42.1749 55.5347 42.1983C55.7536 42.2045 55.9667 42.4056 56.1824 42.5172C56.1824 42.5172 56.1635 42.4957 56.1182 42.5077C55.9529 42.6946 55.8328 42.8696 55.7128 43.0445C55.7128 43.0445 55.6995 43.0266 55.6627 43.0314C55.5494 43.1469 55.4729 43.2576 55.3963 43.3684C55.3963 43.3684 55.38 43.408 55.3132 43.4162C55.1305 43.5356 55.0146 43.647 54.8988 43.7583C54.8988 43.7583 54.8886 43.7617 54.8435 43.7582C54.6469 43.8978 54.4954 44.0409 54.3439 44.1839C54.3439 44.1839 54.3082 44.1881 54.2847 44.1804C54.2304 44.2131 54.1996 44.2533 54.1688 44.2936C54.1688 44.2936 54.1671 44.2797 54.1225 44.2775C53.8227 44.4593 53.5675 44.6433 53.3123 44.8274C53.3123 44.8274 53.3102 44.8143 53.263 44.817C52.7744 45.082 52.333 45.3443 51.8915 45.6067Z" fill="black"/>
<path d="M30.9344 12.4338C31.0437 12.4322 31.1529 12.4306 31.3355 12.4932C32.0247 12.638 32.6391 12.7331 33.2569 12.7964C36.0334 13.0808 38.7049 13.7275 41.2231 14.9343C41.7779 15.2002 42.3634 15.4051 42.9347 15.6381C42.9347 15.6381 42.9062 15.6828 42.9301 15.7039C43.039 15.7472 43.1239 15.7694 43.2089 15.7915C43.2089 15.7915 43.1906 15.8045 43.2055 15.8412C43.3268 16.0082 43.4331 16.1385 43.5881 16.3284C43.3658 16.3284 43.2271 16.3541 43.1024 16.3243C42.1357 16.0933 41.1801 15.8085 40.2042 15.6269C39.4274 15.4823 38.6267 15.4598 37.8367 15.3831C37.7259 15.3757 37.6152 15.3684 37.4329 15.2925C36.4739 15.1021 35.5893 14.9512 34.698 14.8678C34.0166 14.804 33.3267 14.8256 32.6406 14.8093C32.5733 14.8113 32.506 14.8133 32.3681 14.7502C31.4477 14.6078 30.5989 14.4781 29.7481 14.4639C27.7653 14.4308 25.7808 14.4246 23.7983 14.4686C23.0851 14.4845 22.3759 14.6754 21.6648 14.7864C21.5569 14.8058 21.449 14.8252 21.2404 14.8052C19.2556 14.9865 17.3712 15.2063 15.4873 15.4291C15.1896 15.4643 14.8937 15.5132 14.597 15.5557C14.584 15.4967 14.5709 15.4377 14.5579 15.3787C14.6494 15.3327 14.7361 15.2712 14.833 15.2429C16.9709 14.6185 19.0919 13.9274 21.2552 13.402C22.6167 13.0713 24.0435 13.0007 25.4374 12.7909C25.9651 12.7115 26.4828 12.5687 27.005 12.4548C27.1574 12.4403 27.3098 12.4258 27.5666 12.4528C28.7588 12.4741 29.8466 12.4539 30.9344 12.4338Z" fill="black"/>
<path d="M16.7238 30.7929C16.7239 32.32 16.7239 32.3222 15.2079 32.3241C13.1266 32.3266 11.0451 32.3118 8.96405 32.3349C8.44091 32.3407 8.27052 32.1783 8.29267 31.665C8.33103 30.7759 8.31597 29.8834 8.28844 28.9933C8.27567 28.5805 8.41543 28.4293 8.84485 28.4272C11.2054 28.4157 13.5659 28.3878 15.9263 28.3542C16.4991 28.3461 16.79 28.5315 16.7328 29.1497C16.6846 29.6708 16.7234 30.1995 16.7238 30.7929Z" fill="black"/>
<path d="M83.1022 8.99778C85.4835 9.43961 87.7597 10.0227 89.9568 10.8714C81.2234 9.04977 72.4249 8.78726 63.5677 9.65348C70.0193 8.2271 76.5035 7.80652 83.1022 8.99778Z" fill="black"/>
<path d="M0.190928 33.4197C0.102713 32.5884 0.050377 31.7767 0.0515165 30.965C0.0516549 30.8657 0.335569 30.6866 0.492933 30.6811C1.33405 30.652 2.17687 30.6746 3.01883 30.6618C3.38696 30.6562 3.50514 30.8152 3.50307 31.159C3.49207 32.9868 3.48637 34.8148 3.50071 36.6425C3.50427 37.097 3.3131 37.2667 2.87076 37.2313C2.70813 37.2183 2.54136 37.2138 2.38006 37.2335C1.86822 37.2958 1.67992 37.1141 1.69642 36.5857C1.73487 35.3544 1.70868 34.1211 1.67189 32.8495C1.47309 33.7617 0.732773 33.2907 0.190928 33.4197Z" fill="black"/>
<path d="M23.3556 32.588C23.3499 33.942 23.3101 35.2446 23.3576 36.5442C23.3863 37.3297 22.8847 37.2021 22.3953 37.2393C21.8327 37.2819 21.619 37.1161 21.6237 36.5256C21.6377 34.7926 21.5872 33.059 21.5593 31.3257C21.5524 30.9029 21.6611 30.6309 22.1904 30.6536C22.9369 30.6857 23.6874 30.6861 24.4337 30.6498C24.9456 30.6249 25.0877 30.8321 25.0571 31.2915C25.0283 31.7233 25.0615 32.1588 25.054 32.5924C25.0472 32.9802 25.1974 33.4502 24.4817 33.4127C23.9361 33.384 23.3452 33.5107 23.4812 32.6561C23.4905 32.5982 23.4463 32.5321 23.4269 32.4699C23.4041 32.4917 23.3813 32.5135 23.3556 32.588Z" fill="black"/>
<path d="M18.181 34.6423C18.1805 33.4819 18.1934 32.3897 18.1732 31.298C18.1646 30.8387 18.3155 30.6388 18.816 30.6495C20.7403 30.6906 20.3585 30.4235 20.3814 32.1364C20.401 33.5962 20.3773 35.0567 20.4095 36.5162C20.4211 37.0438 20.2528 37.2519 19.6928 37.2378C17.946 37.1939 18.1854 37.4239 18.1791 35.8058C18.1776 35.4408 18.1802 35.0758 18.181 34.6423Z" fill="black"/>
<path d="M6.76271 33.2685C6.76427 34.4329 6.75326 35.5289 6.77351 36.6243C6.78166 37.0656 6.61314 37.24 6.15822 37.2297C4.48645 37.192 4.68636 37.439 4.68594 35.8312C4.68556 34.393 4.7061 32.9541 4.66327 31.517C4.64452 30.8878 4.79366 30.608 5.50748 30.6398C6.9957 30.7061 6.72515 30.4917 6.76016 31.8987C6.77094 32.3322 6.76239 32.7661 6.76271 33.2685Z" fill="black"/>
<path d="M94.5606 46.3872C94.3664 46.4128 94.2258 46.4217 94.0861 46.4152C94.021 46.4122 93.9573 46.3793 93.8265 46.34C93.8265 45.3865 93.8265 44.4217 93.8265 43.259C93.3215 44.0284 92.9291 44.6263 92.4499 45.3565C92.0293 44.6955 91.6851 44.1544 91.3409 43.6134C91.2931 43.6246 91.2453 43.6358 91.1975 43.6471C91.1975 44.5602 91.1975 45.4733 91.1975 46.4124C90.88 46.4124 90.6517 46.4124 90.3729 46.4124C90.3729 44.8823 90.3729 43.3608 90.3729 41.8061C90.8618 41.5898 91.1935 41.7644 91.4525 42.2534C91.7524 42.8196 92.1096 43.3568 92.4936 43.9922C92.827 43.4286 93.1651 42.9407 93.414 42.4126C93.6637 41.8828 93.9891 41.614 94.6147 41.8235C94.6147 43.3253 94.6147 44.8447 94.5606 46.3872Z" fill="black"/>
<path d="M52.4682 9.29603C51.8891 9.12073 51.2856 8.90351 50.6793 8.69432C47.9848 7.76464 45.2219 7.15328 42.359 7.03518C40.8436 6.97267 39.3254 6.87679 37.8111 6.91098C35.0881 6.97245 32.3681 7.12234 29.7159 7.82154C27.358 8.44319 24.9968 9.05316 22.6388 9.6747C22.5139 9.70762 22.4055 9.80029 22.3049 10.015C22.4859 10.015 22.6759 10.0507 22.8466 10.0097C26.1537 9.21512 29.5194 9.04616 32.906 9.10059C33.035 9.10266 33.1627 9.17316 33.3115 9.25971C30.8813 9.41905 28.4136 9.39439 25.9849 9.68276C23.849 9.93637 21.7567 10.5407 19.6448 10.989C19.3996 11.041 19.1528 11.0858 18.8469 11.0192C19.2177 10.8541 19.5847 10.68 19.9601 10.5252C27.4246 7.44675 35.1757 6.09809 43.2689 6.89903C46.4479 7.21364 49.5652 7.80224 52.4682 9.29603ZM21.3938 10.1285C21.3468 10.1826 21.2997 10.2367 21.2527 10.2908C21.3368 10.2946 21.4208 10.2983 21.5049 10.302C21.4929 10.2365 21.4808 10.1709 21.3938 10.1285ZM20.7954 10.4282C20.8068 10.4089 20.8182 10.3895 20.8296 10.3702C20.8109 10.3785 20.7922 10.3868 20.7954 10.4282Z" fill="black"/>
<path d="M62.9758 19.0692C63.4897 19.3043 63.9692 19.128 64.4689 18.8936C67.8042 17.3289 71.2728 16.0984 74.8871 15.3503C77.4282 14.8244 80.0196 14.513 82.5996 14.1898C84.0752 14.005 85.5728 13.9894 87.0603 13.8942C87.1647 13.8876 87.2673 13.8527 87.5747 13.788C87.2922 13.6941 87.2008 13.6392 87.1078 13.6364C85.4036 13.586 83.6991 13.504 81.9948 13.5061C79.9625 13.5085 77.9303 13.5859 75.898 13.626C75.6657 13.6306 75.4327 13.6042 75.1527 13.5604C80.4615 13.33 85.8184 13.0993 91.1498 13.9042C91.2328 13.9167 91.3151 13.9338 91.3783 13.8098C87.7741 14.0575 84.158 14.198 80.5684 14.5774C74.8502 15.1818 69.3919 16.7575 64.2118 19.2175C63.7707 19.4269 63.3584 19.6257 62.9758 19.0692Z" fill="black"/>
<path d="M70.2409 44.2814C70.4171 44.136 70.5842 43.9885 70.7675 43.9659C71.1105 43.9236 71.4629 43.9537 71.8981 43.9537C71.8981 44.3563 71.8981 44.7372 71.8981 45.118C71.8981 45.4823 71.8981 45.8466 71.8981 46.1984C70.5884 46.7844 69.0385 46.5854 68.3007 45.7524C67.628 44.9928 67.5756 43.6038 68.1869 42.7381C68.8288 41.8291 70.2966 41.4891 71.6904 41.9244C71.6904 42.1881 71.6904 42.4498 71.6904 42.6504C71.09 42.6163 70.5272 42.501 69.99 42.5716C68.9336 42.7104 68.4131 43.555 68.6534 44.5862C68.855 45.4512 69.9116 46.0577 70.8031 45.7179C71.0254 45.6331 71.0819 45.1334 71.168 44.9328C70.8476 44.4978 70.211 45.0276 70.2409 44.2814Z" fill="black"/>
<path d="M3.5003 26.9574C3.50152 27.6651 3.48805 28.3057 3.50418 28.9456C3.51322 29.3044 3.36195 29.4302 3.00448 29.4235C2.18524 29.4082 1.36522 29.4038 0.546134 29.4218C0.157443 29.4304 -0.025147 29.3019 0.0140637 28.9094C0.0299101 28.7508 0.0366446 28.5868 0.0136763 28.4299C-0.0655859 27.8886 0.204267 27.7416 0.703977 27.7966C0.954245 27.8241 1.21031 27.8014 1.59311 27.8014C1.59311 27.2507 1.62753 26.7588 1.58412 26.2735C1.53344 25.7069 1.67353 25.4307 2.33429 25.4561C3.75912 25.5109 3.48008 25.3855 3.5003 26.9574Z" fill="black"/>
<path d="M21.5441 27.3641C21.5435 27.1135 21.543 26.931 21.5421 26.7485C21.536 25.3705 21.5354 25.3816 22.9203 25.4533C23.3018 25.4731 23.4785 25.6007 23.4662 25.9821C23.4523 26.4151 23.4824 26.85 23.4568 27.282C23.4299 27.7339 23.5627 27.9351 24.0802 27.9265C25.091 27.9097 25.1845 28.0309 25.0278 29.0214C25.004 29.1719 24.7658 29.3985 24.619 29.4045C23.733 29.4402 22.8439 29.4402 21.958 29.403C21.8158 29.3971 21.581 29.1541 21.5667 29.0045C21.5169 28.4843 21.5453 27.9569 21.5441 27.3641Z" fill="black"/>
<path d="M18.1857 29.0879C18.1796 28.0675 18.1925 27.1091 18.1687 26.1515C18.1569 25.6781 18.2781 25.4445 18.831 25.4531C20.6958 25.4821 20.3373 25.3016 20.3812 26.9231C20.3991 27.5842 20.3701 28.2466 20.3923 28.9075C20.4054 29.2946 20.2531 29.4433 19.8617 29.4233C19.4657 29.403 19.0652 29.4449 18.6721 29.4067C18.5042 29.3904 18.35 29.2398 18.1857 29.0879Z" fill="black"/>
<path d="M4.67434 28.578C4.67386 27.7115 4.6897 26.9104 4.66671 26.1103C4.65364 25.6556 4.79197 25.458 5.30065 25.4497C6.75312 25.4262 6.75464 25.4059 6.76283 26.8397C6.76688 27.5488 6.78886 28.2597 6.7422 28.9659C6.73154 29.1274 6.48467 29.3868 6.32318 29.4051C5.81797 29.4625 5.30159 29.4262 4.71588 29.4262C4.70017 29.1298 4.68729 28.8868 4.67434 28.578Z" fill="black"/>
<path d="M26.9431 12.4433C26.4828 12.5687 25.9651 12.7115 25.4374 12.7909C24.0435 13.0007 22.6167 13.0713 21.2552 13.402C19.0919 13.9274 16.9709 14.6185 14.833 15.2429C14.7361 15.2712 14.6494 15.3327 14.5579 15.3787C14.5709 15.4377 14.584 15.4967 14.597 15.5557C14.8937 15.5132 15.1896 15.4643 15.4873 15.4291C17.3712 15.2063 19.2556 14.9865 21.1855 14.7976C17.5645 15.1538 13.9583 15.7546 10.494 17.0279C10.1472 17.1553 9.75931 17.176 9.51097 17.2233C10.7564 16.687 12.1041 16.0506 13.495 15.5232C14.9306 14.9788 16.3934 14.4901 17.8719 14.0696C19.3277 13.6556 20.8062 13.2943 22.2967 13.0263C23.8109 12.754 25.3519 12.624 26.9431 12.4433ZM14.1422 15.77C14.1598 15.7554 14.1803 15.743 14.1943 15.7256C14.2077 15.7088 14.2144 15.6868 14.224 15.6671C14.0316 15.6671 13.8391 15.6671 13.6467 15.6671C13.6498 15.7125 13.6529 15.7578 13.656 15.8032C13.7902 15.8032 13.9244 15.8032 14.1422 15.77Z" fill="black"/>
<path d="M80.5056 44.983C80.2384 44.348 79.9904 43.766 79.6994 43.2052C79.4575 42.7389 79.165 42.2977 78.8702 41.8041C79.3999 41.6087 79.7936 41.6541 80.0723 42.1937C80.3315 42.6955 80.6439 43.171 80.9728 43.7253C81.2944 43.2155 81.6294 42.7775 81.8612 42.2924C82.1194 41.7518 82.4954 41.6288 83.0884 41.8047C82.3365 43.2707 80.8706 44.476 81.4354 46.4115C81.0632 46.4115 80.8206 46.4115 80.5062 46.4115C80.5062 45.9526 80.5062 45.4988 80.5056 44.983Z" fill="black"/>
<path d="M36.244 48.9187C36.3616 49.0184 36.4505 49.1788 36.5175 49.1705C38.2653 48.9537 40.0156 48.7493 41.755 48.4782C43.0605 48.2748 44.381 48.0778 45.6416 47.7057C47.4614 47.1684 49.2329 46.4747 51.0255 45.8491C51.2423 45.7734 51.4622 45.7062 51.7365 45.6397C49.5395 46.8587 47.1157 47.634 44.6072 48.0951C41.895 48.5937 39.1543 48.9468 36.4212 49.3307C35.9455 49.3975 35.446 49.2916 34.9574 49.2906C34.8537 49.2904 34.7497 49.4 34.6375 49.4064C35.16 49.2378 35.6825 49.0692 36.244 48.9187Z" fill="black"/>
<path d="M33.6784 9.34298C34.4051 9.34004 35.21 9.24598 35.9689 9.38719C38.0254 9.76979 40.0932 10.1511 42.0952 10.734C43.2503 11.0703 44.2865 11.796 45.382 12.3954C41.806 10.3267 37.833 9.61861 33.6784 9.34298Z" fill="black"/>
<path d="M42.9087 15.6011C42.3634 15.4051 41.7779 15.2002 41.2231 14.9343C38.7049 13.7275 36.0334 13.0808 33.2569 12.7964C32.6391 12.7331 32.0247 12.638 31.3873 12.5112C35.4447 12.6475 39.3202 13.5512 42.9087 15.6011Z" fill="black"/>
<path d="M21.7275 14.7985C22.3759 14.6754 23.0851 14.4845 23.7983 14.4686C25.7808 14.4246 27.7653 14.4308 29.7481 14.4639C30.5989 14.4781 31.4478 14.6078 32.3219 14.7292C29.2465 14.7613 26.1469 14.7462 23.0472 14.7405C22.6282 14.7398 22.2091 14.7861 21.7275 14.7985Z" fill="black"/>
<path d="M65.4643 13.8008C64.2296 13.7806 62.9309 13.7795 61.6377 13.6969C60.7841 13.6424 59.9202 13.5405 59.0933 13.3356C57.742 13.0007 56.4127 12.5723 55.465 11.4194C57.8104 13.3425 60.7265 13.4322 63.5809 13.713C64.1845 13.7723 64.7952 13.7629 65.4643 13.8008Z" fill="black"/>
<path d="M37.8887 15.4018C38.6268 15.4598 39.4274 15.4823 40.2042 15.6269C41.1801 15.8085 42.1357 16.0933 43.1024 16.3243C43.2271 16.3541 43.3658 16.3284 43.5881 16.3284C43.4331 16.1385 43.3268 16.0082 43.2107 15.8314C43.8268 16.1409 44.4528 16.4971 45.0787 16.8532C45.0548 16.8704 45.0309 16.8875 45.007 16.9047C42.6516 16.41 40.2961 15.9152 37.8887 15.4018Z" fill="black"/>
<path d="M55.7502 15.9497C56.3967 16.0246 57.1181 16.0355 57.783 16.23C59.5316 16.7417 61.1788 17.4834 62.6264 18.5964C62.7507 18.692 62.8458 18.8237 62.9578 18.9873C60.815 17.4764 58.4581 16.3866 55.7502 15.9497Z" fill="black"/>
<path d="M74.472 13.5353C74.4318 13.6188 74.3288 13.75 74.2226 13.7525C72.1128 13.8011 70.0026 13.8349 67.8445 13.8419C70.0001 13.7156 72.2039 13.6193 74.472 13.5353Z" fill="black"/>
<path d="M42.7079 46.2046C42.753 46.2205 42.7562 46.2547 42.7425 46.2635C41.3607 47.1444 39.9216 47.9033 38.2356 48.2514C39.6736 47.5721 41.1658 46.8916 42.7079 46.2046Z" fill="black"/>
<path d="M32.6981 14.827C33.3268 14.8256 34.0166 14.804 34.698 14.8678C35.5893 14.9512 36.474 15.1021 37.3851 15.2646C35.8575 15.1517 34.3065 14.9983 32.6981 14.827Z" fill="black"/>
<path d="M51.8231 15.8834C51.8045 15.8203 51.8478 15.725 51.8913 15.7249C53.0512 15.7209 54.2183 15.4316 55.3898 15.8444C54.2351 15.8918 53.0601 15.8937 51.8231 15.8834Z" fill="black"/>
<path d="M52.394 42.0906C51.3564 42.3835 50.3377 41.9746 49.2902 41.7991C48.9873 41.7483 48.6552 41.8648 48.286 41.9116C48.4089 41.5141 48.6779 41.45 49.1234 41.5422C50.1857 41.7622 51.2655 41.9019 52.394 42.0906Z" fill="black"/>
<path d="M56.222 42.4933C55.9667 42.4056 55.7536 42.2045 55.5347 42.1983C54.7135 42.1749 53.8903 42.2151 53.0449 42.1862C54.1695 42.0905 55.3173 42.0401 56.5446 41.9861C56.4326 42.1773 56.3471 42.3234 56.222 42.4933Z" fill="black"/>
<path d="M47.0874 13.7184C48.0671 14.0249 48.6516 14.8009 49.1867 15.683C48.4977 15.0742 47.8032 14.4162 47.0874 13.7184Z" fill="black"/>
<path d="M30.8781 12.418C29.8466 12.4539 28.7588 12.4741 27.6234 12.4632C28.6578 12.4222 29.7398 12.4122 30.8781 12.418Z" fill="black"/>
<path d="M54.5881 10.6591C53.9076 10.2738 53.2057 9.84867 52.4942 9.37566C53.1786 9.75831 53.8727 10.1889 54.5881 10.6591Z" fill="black"/>
<path d="M49.1935 15.7611C49.9089 15.7658 50.6399 15.8128 51.4162 15.8892C51.0572 15.9939 50.6373 16.0252 50.2527 16.1556C49.7791 16.3163 49.4606 16.1936 49.1935 15.7611Z" fill="black"/>
<path d="M44.7787 44.9048C44.1995 45.3167 43.5726 45.7405 42.8917 46.161C43.4689 45.7441 44.0999 45.3304 44.7787 44.9048Z" fill="black"/>
<path d="M45.4061 12.4779C45.9433 12.8211 46.5049 13.2019 47.0692 13.6318C46.5247 13.2924 45.9776 12.904 45.4061 12.4779Z" fill="black"/>
<path d="M51.941 45.6027C52.3329 45.3443 52.7744 45.082 53.2687 44.8206C52.8778 45.0807 52.4342 45.3397 51.941 45.6027Z" fill="black"/>
<path d="M45.9493 44.0057C45.6372 44.3002 45.2798 44.6091 44.8715 44.9075C45.1817 44.6047 45.5429 44.3124 45.9493 44.0057Z" fill="black"/>
<path d="M53.3608 44.8217C53.5675 44.6433 53.8227 44.4593 54.129 44.2805C53.9232 44.4625 53.6663 44.6393 53.3608 44.8217Z" fill="black"/>
<path d="M46.9317 43.1742C46.7596 43.3746 46.5437 43.5896 46.2789 43.8106C46.4493 43.6074 46.6687 43.3981 46.9317 43.1742Z" fill="black"/>
<path d="M55.2944 11.2112C55.1299 11.14 54.9459 11.0293 54.7643 10.8682C54.9362 10.9358 55.1056 11.0537 55.2944 11.2112Z" fill="black"/>
<path d="M55.7557 43.0293C55.8329 42.8696 55.953 42.6946 56.1238 42.5208C56.0493 42.686 55.9239 42.85 55.7557 43.0293Z" fill="black"/>
<path d="M54.9392 43.7487C55.0147 43.647 55.1306 43.5356 55.2918 43.4199C55.2179 43.5233 55.0987 43.6312 54.9392 43.7487Z" fill="black"/>
<path d="M54.3864 44.1691C54.4954 44.0409 54.6469 43.8978 54.847 43.7542C54.74 43.8873 54.5845 44.0207 54.3864 44.1691Z" fill="black"/>
<path d="M47.7816 42.3563C47.7398 42.4609 47.6573 42.5797 47.5267 42.6984C47.5661 42.589 47.6535 42.4797 47.7816 42.3563Z" fill="black"/>
<path d="M55.433 43.3532C55.4728 43.2576 55.5493 43.1469 55.6718 43.0379C55.635 43.1391 55.5524 43.2385 55.433 43.3532Z" fill="black"/>
<path d="M47.2229 42.908C47.1961 42.9808 47.1301 43.0652 47.02 43.1544C47.0451 43.0794 47.1144 42.9995 47.2229 42.908Z" fill="black"/>
<path d="M47.4503 42.7003C47.4436 42.7512 47.3996 42.8145 47.3125 42.8841C47.3172 42.831 47.3651 42.7718 47.4503 42.7003Z" fill="black"/>
<path d="M43.1865 15.7567C43.124 15.7694 43.039 15.7472 42.9424 15.6805C43.0085 15.6646 43.0862 15.6932 43.1865 15.7567Z" fill="black"/>
<path d="M48.1993 41.9313C48.198 41.9905 48.1598 42.0632 48.0766 42.134C48.0752 42.0696 48.1189 42.0072 48.1993 41.9313Z" fill="black"/>
<path d="M46.203 43.8108C46.1905 43.8609 46.1382 43.9195 46.0429 43.9826C46.0543 43.9311 46.1088 43.8752 46.203 43.8108Z" fill="black"/>
<path d="M47.9945 42.1476C47.9907 42.1972 47.952 42.2618 47.8698 42.3323C47.8707 42.2797 47.9151 42.2212 47.9945 42.1476Z" fill="black"/>
<path d="M45.217 17.1304C45.2144 17.1301 45.2197 17.1308 45.217 17.1304V17.1304Z" fill="black"/>
<path d="M54.2057 44.2876C54.1997 44.2534 54.2305 44.2131 54.3022 44.1763C54.3095 44.2138 54.2761 44.2476 54.2057 44.2876Z" fill="black"/>
<path d="M54.7491 10.7867C54.7167 10.804 54.6683 10.7893 54.6118 10.7355C54.6467 10.7158 54.6899 10.7353 54.7491 10.7867Z" fill="black"/>
<path d="M55.4517 11.34C55.4192 11.3562 55.3711 11.3397 55.3144 11.2842C55.3491 11.266 55.3926 11.2866 55.4517 11.34Z" fill="black"/>
<path d="M21.4313 10.1169C21.4808 10.1709 21.4929 10.2365 21.5049 10.302C21.4208 10.2983 21.3368 10.2946 21.2527 10.2908C21.2997 10.2367 21.3468 10.1826 21.4313 10.1169Z" fill="black"/>
<path d="M20.7844 10.4117C20.7922 10.3868 20.8109 10.3785 20.8296 10.3702C20.8182 10.3895 20.8067 10.4089 20.7844 10.4117Z" fill="black"/>
<path d="M14.1005 15.7865C13.9245 15.8032 13.7902 15.8032 13.656 15.8032C13.6529 15.7578 13.6498 15.7125 13.6467 15.6671C13.8391 15.6671 14.0316 15.6671 14.224 15.6671C14.2144 15.6868 14.2077 15.7088 14.1943 15.7256C14.1803 15.743 14.1599 15.7554 14.1005 15.7865Z" fill="black"/>
<path d="M43.9532 16.4476C43.9474 16.4505 43.959 16.4447 43.9532 16.4476V16.4476Z" fill="black"/>
</svg>
