<svg width="40" height="40" viewBox="0 0 40 40" fill="none" xmlns="http://www.w3.org/2000/svg">
<rect width="40" height="40" rx="20" fill="#1F1F1F"/>
<path d="M15.7344 21.7321C15.7344 21.7321 16.6398 20.51 17.2344 20.2316C19.0292 19.3913 19.3943 19.0261 20.2344 17.2307C20.5127 16.636 21.7344 15.7302 21.7344 15.7302M18.2344 24.2329C18.2344 24.2329 19.4561 23.3271 19.7344 22.7324C20.5745 20.9371 20.9396 20.5719 22.7344 19.7315C23.3289 19.4531 24.2344 18.231 24.2344 18.231" stroke="white" stroke-width="2" stroke-linecap="round" stroke-linejoin="round"/>
<path d="M22.4313 10.8925C22.9382 10.3838 23.7613 10.3825 24.2698 10.8896L29.0816 15.6877C29.5901 16.1947 29.5914 17.0181 29.0845 17.5267L27.5559 19.0607C27.049 19.5693 26.2259 19.5706 25.7174 19.0636L20.9056 14.2655C20.3972 13.7584 20.3959 12.9351 20.9027 12.4264L22.4313 10.8925Z" stroke="white" stroke-width="2"/>
<path d="M12.4138 20.9026C12.9207 20.394 13.7438 20.3927 14.2522 20.8997L19.0641 25.6978C19.5725 26.2049 19.5738 27.0282 19.067 27.5369L17.5384 29.0708C17.0315 29.5795 16.2084 29.5808 15.6999 29.0737L10.8881 24.2756C10.3796 23.7686 10.3783 22.9452 10.8852 22.4366L12.4138 20.9026Z" stroke="white" stroke-width="2"/>
<path d="M25.9377 11.4525C27.8201 8.98544 31.14 11.8401 28.5431 14.0287M11.3781 25.9773C8.99847 27.9687 11.9978 31.1586 14.0674 28.4656" stroke="white" stroke-width="2" stroke-linecap="round" stroke-linejoin="round"/>
</svg>
