<svg width="40" height="40" viewBox="0 0 40 40" fill="none" xmlns="http://www.w3.org/2000/svg">
<rect width="40" height="40" rx="20" fill="#1F1F1F"/>
<path d="M13.9816 19.2462C13.8946 21.9687 17.1027 25.3243 20.1106 26.3792M13.9816 19.2462C13.677 19.7689 10.5662 22.2627 10.5119 23.319C10.2483 25.4168 13.8123 29.3578 16.5604 29.4924C17.5866 29.638 19.01 27.9111 20.4529 26.6281C21.2476 25.9214 22.3929 25.7579 26.9773 24.6203C28.6409 24.3311 30.6395 21.4615 27.6767 19.0291M13.9816 19.2462C14.9098 17.045 16.5145 12.7897 19.6615 11.1093C20.9395 10.3832 24.2589 9.71458 27.5115 12.8068C28.6305 13.7479 30.5702 15.8093 28.7648 18.1845C27.5611 19.5873 25.7411 19.1812 25.5643 21.6073" stroke="white" stroke-width="2" stroke-linecap="round" stroke-linejoin="round"/>
</svg>
