<svg width="40" height="40" viewBox="0 0 40 40" fill="none" xmlns="http://www.w3.org/2000/svg">
<rect width="40" height="40" rx="20" fill="#1F1F1F"/>
<path d="M20 30C25.5228 30 30 25.5228 30 20C30 14.4771 25.5228 10 20 10C14.4771 10 10 14.4771 10 20C10 25.5228 14.4771 30 20 30Z" stroke="white" stroke-width="2"/>
<path d="M20.0078 18.5082C19.1794 18.5082 18.5078 19.1798 18.5078 20.0082C18.5078 20.8366 19.1794 21.5082 20.0078 21.5082C20.8362 21.5082 21.5078 20.8366 21.5078 20.0082C21.5078 19.1798 20.8362 18.5082 20.0078 18.5082ZM20.0078 18.5082V14.999M23.0147 23.0198L21.0661 21.0712" stroke="white" stroke-width="2" stroke-linecap="round" stroke-linejoin="round"/>
</svg>
